<svg xmlns="http://www.w3.org/2000/svg" width="900" height="520" viewBox="0 0 900 520">
  <defs>
    <linearGradient id="bg" x1="0" x2="1" y1="0" y2="1">
      <stop offset="0%" stop-color="#f8fafc"/>
      <stop offset="100%" stop-color="#ecfeff"/>
    </linearGradient>
    <linearGradient id="chip" x1="0" x2="1" y1="0" y2="1">
      <stop offset="0%" stop-color="#0f172a"/>
      <stop offset="100%" stop-color="#155e75"/>
    </linearGradient>
    <filter id="shadow" x="-20%" y="-20%" width="140%" height="140%">
      <feDropShadow dx="0" dy="12" stdDeviation="14" flood-color="#0f172a" flood-opacity="0.14"/>
    </filter>
  </defs>

  <rect width="900" height="520" rx="34" fill="url(#bg)"/>
  <g stroke="#38bdf8" stroke-width="5" stroke-linecap="round" opacity="0.7">
    <path d="M98 170 H250"/>
    <path d="M98 260 H250"/>
    <path d="M98 350 H250"/>
    <path d="M650 170 H804"/>
    <path d="M650 260 H804"/>
    <path d="M650 350 H804"/>
    <path d="M250 170 C310 170, 310 212, 360 212"/>
    <path d="M250 350 C310 350, 310 308, 360 308"/>
    <path d="M540 212 C590 212, 590 170, 650 170"/>
    <path d="M540 308 C590 308, 590 350, 650 350"/>
    <path d="M650 260 H540"/>
    <path d="M250 260 H360"/>
  </g>

  <g fill="#0891b2">
    <circle cx="98" cy="170" r="11"/>
    <circle cx="98" cy="260" r="11"/>
    <circle cx="98" cy="350" r="11"/>
    <circle cx="804" cy="170" r="11"/>
    <circle cx="804" cy="260" r="11"/>
    <circle cx="804" cy="350" r="11"/>
  </g>

  <g filter="url(#shadow)">
    <rect x="336" y="128" width="228" height="228" rx="28" fill="url(#chip)"/>
    <rect x="376" y="168" width="148" height="148" rx="20" fill="#083344" stroke="#67e8f9" stroke-width="3"/>
    <text x="450" y="228" text-anchor="middle" font-family="Lato, Arial, sans-serif" font-size="32" font-weight="700" fill="#ecfeff">LLM</text>
    <text x="450" y="266" text-anchor="middle" font-family="Lato, Arial, sans-serif" font-size="22" fill="#a5f3fc">RL</text>
  </g>

  <g fill="none" stroke="#f59e0b" stroke-width="5" stroke-linecap="round">
    <path d="M620 94 C690 106, 714 136, 702 180"/>
    <path d="M702 180 l-17 -24 M702 180 l23 -16"/>
  </g>

  <g fill="#f59e0b" opacity="0.95">
    <rect x="612" y="80" width="150" height="48" rx="24"/>
    <text x="687" y="111" text-anchor="middle" font-family="Lato, Arial, sans-serif" font-size="19" font-weight="700" fill="#fff7ed">GRPO</text>
  </g>

  <g fill="#0e7490" opacity="0.92">
    <rect x="110" y="74" width="170" height="50" rx="25"/>
    <text x="195" y="106" text-anchor="middle" font-family="Lato, Arial, sans-serif" font-size="18" font-weight="700" fill="#ecfeff">Circuit Q&A</text>
  </g>

  <text x="64" y="440" font-family="Lato, Arial, sans-serif" font-size="34" font-weight="700" fill="#111827">AnalogSeeker</text>
  <text x="64" y="476" font-family="Lato, Arial, sans-serif" font-size="20" fill="#475569">Foundation language model for analog circuit design</text>
</svg>
