<svg xmlns="http://www.w3.org/2000/svg" width="900" height="520" viewBox="0 0 900 520">
  <defs>
    <linearGradient id="bg" x1="0" x2="1" y1="0" y2="1">
      <stop offset="0%" stop-color="#fff7ed"/>
      <stop offset="100%" stop-color="#eef6ff"/>
    </linearGradient>
    <linearGradient id="hand" x1="0" x2="1" y1="0" y2="1">
      <stop offset="0%" stop-color="#fed7aa"/>
      <stop offset="100%" stop-color="#fb923c"/>
    </linearGradient>
    <filter id="shadow" x="-20%" y="-20%" width="140%" height="140%">
      <feDropShadow dx="0" dy="12" stdDeviation="14" flood-color="#9a3412" flood-opacity="0.16"/>
    </filter>
  </defs>

  <rect width="900" height="520" rx="34" fill="url(#bg)"/>
  <path d="M80 400 C220 290, 255 150, 420 205 S605 325, 810 142" fill="none" stroke="#60a5fa" stroke-width="10" stroke-linecap="round" stroke-dasharray="2 24"/>
  <path d="M104 420 C250 316, 316 260, 446 286 S620 362, 792 254" fill="none" stroke="#fb923c" stroke-width="5" stroke-linecap="round" opacity="0.65"/>

  <g filter="url(#shadow)">
    <rect x="548" y="168" width="140" height="142" rx="28" fill="#1f2937"/>
    <rect x="570" y="190" width="96" height="98" rx="18" fill="#334155"/>
    <circle cx="618" cy="238" r="30" fill="#94a3b8"/>
    <path d="M594 238 h48 M618 214 v48" stroke="#e2e8f0" stroke-width="6" stroke-linecap="round"/>
  </g>

  <g transform="translate(196 118)" filter="url(#shadow)">
    <path d="M190 224 C154 250, 95 256, 66 219 C42 188, 55 143, 95 128 C120 119, 145 126, 165 145 L220 198 C210 207, 201 216, 190 224Z" fill="url(#hand)"/>
    <rect x="118" y="47" width="32" height="120" rx="16" fill="url(#hand)" transform="rotate(-24 134 107)"/>
    <rect x="158" y="31" width="32" height="132" rx="16" fill="url(#hand)" transform="rotate(-10 174 97)"/>
    <rect x="199" y="45" width="32" height="122" rx="16" fill="url(#hand)" transform="rotate(7 215 106)"/>
    <rect x="236" y="78" width="32" height="100" rx="16" fill="url(#hand)" transform="rotate(25 252 128)"/>
    <rect x="55" y="136" width="30" height="98" rx="15" fill="url(#hand)" transform="rotate(-50 70 185)"/>
    <circle cx="170" cy="210" r="10" fill="#f97316"/>
    <circle cx="205" cy="194" r="8" fill="#f97316"/>
    <circle cx="132" cy="219" r="7" fill="#f97316"/>
  </g>

  <g opacity="0.88">
    <circle cx="280" cy="384" r="7" fill="#2563eb"/>
    <circle cx="360" cy="334" r="7" fill="#2563eb"/>
    <circle cx="438" cy="304" r="7" fill="#2563eb"/>
    <circle cx="534" cy="320" r="7" fill="#2563eb"/>
    <circle cx="624" cy="356" r="7" fill="#2563eb"/>
  </g>

  <text x="64" y="72" font-family="Lato, Arial, sans-serif" font-size="34" font-weight="700" fill="#111827">SynManDex</text>
  <text x="64" y="108" font-family="Lato, Arial, sans-serif" font-size="20" fill="#475569">Synthetic human priors for dexterous grasping</text>
  <text x="64" y="462" font-family="Lato, Arial, sans-serif" font-size="18" fill="#64748b">human hand prior -> retargeting -> dexterous grasp</text>
</svg>
